<svg width="422" height="372" viewBox="0 0 422 372" fill="none" xmlns="http://www.w3.org/2000/svg">
<rect width="422" height="372" rx="54" fill="#E8E8E8"/>
<path d="M387 317C387 330.255 376.255 341 363 341H190C104.396 341 35 271.604 35 186C35 100.396 104.396 31 190 31H363C376.255 31 387 41.7452 387 55V317Z" fill="#111111"/>
<path d="M183 106.325C183 90.1596 200.5 80.0559 214.5 88.1386L352.5 167.813C366.5 175.896 366.5 196.104 352.5 204.186L214.5 283.86C200.5 291.943 183 281.84 183 265.674V228.987C182.668 228.995 182.334 229 182 229C158.252 229 139 209.748 139 186C139 162.252 158.252 143 182 143C182.334 143 182.668 143.004 183 143.012V106.325Z" fill="#E8E8E8"/>
<path d="M182.5 66.864C182.5 60.864 177.628 55.9527 171.649 56.4554C158.361 57.5728 145.303 60.7379 132.942 65.8576C117.231 72.3656 102.955 81.9045 90.9297 93.9297C78.9045 105.955 69.3656 120.231 62.8576 135.942C56.3496 151.654 53 168.494 53 185.5C53 202.506 56.3496 219.346 62.8576 235.058C69.3656 250.769 78.9045 265.045 90.9297 277.07C102.955 289.096 117.231 298.634 132.943 305.142C145.303 310.262 158.361 313.427 171.649 314.545C177.628 315.047 182.5 310.136 182.5 304.136V304.136C182.5 298.136 177.624 293.329 171.654 292.725C161.222 291.67 150.98 289.096 141.257 285.068C128.182 279.652 116.301 271.714 106.294 261.706C96.2861 251.699 88.3477 239.818 82.9316 226.743C77.5156 213.667 74.728 199.653 74.728 185.5C74.728 171.347 77.5156 157.333 82.9316 144.257C88.3477 131.182 96.2861 119.301 106.294 109.294C116.301 99.2861 128.182 91.3477 141.257 85.9316C150.98 81.9043 161.222 79.3303 171.654 78.2751C177.624 77.6713 182.5 72.864 182.5 66.864V66.864Z" fill="#E8E8E8"/>
<path d="M168.406 107.775C166.834 101.908 160.769 98.3656 155.129 100.623C139.768 106.771 126.269 116.956 116.115 130.19C103.719 146.344 97 166.138 97 186.5C97 206.862 103.719 226.656 116.115 242.81C126.269 256.044 139.768 266.229 155.129 272.377C160.769 274.634 166.834 271.092 168.406 265.225V265.225C169.978 259.357 166.445 253.403 160.893 250.939C150.183 246.184 140.77 238.808 133.566 229.42C124.118 217.107 118.997 202.02 118.997 186.5C118.997 170.98 124.118 155.893 133.566 143.58C140.77 134.192 150.183 126.816 160.893 122.061C166.445 119.597 169.978 113.643 168.406 107.775V107.775Z" fill="#E8E8E8"/>
</svg>
